{"accessors":[{"bufferView":2,"componentType":5126,"count":9366,"max":[0.9806600213050842,0.9815099835395813,0.9935399889945984],"min":[-0.992609977722168,-0.9759699702262878,-0.983430027961731],"type":"VEC3","byteOffset":0},{"bufferView":2,"byteOffset":112392,"componentType":5126,"count":9366,"max":[0.9988914728164673,0.999329149723053,0.9999967217445374],"min":[-0.9997134804725647,-0.9999815821647644,-0.999941885471344],"type":"VEC3"},{"bufferView":3,"componentType":5126,"count":9366,"max":[0.9999859929084778,1,0.762828528881073,1],"min":[-0.9999808669090271,-0.9999914765357971,-0.711290717124939,1],"type":"VEC4","byteOffset":0},{"bufferView":1,"componentType":5126,"count":9366,"max":[0.995140016078949,0.9998199939727783],"min":[0.00015999999595806003,0.00015999999595806003],"type":"VEC2","byteOffset":0},{"bufferView":0,"componentType":5125,"count":53760,"max":[9365],"min":[0],"type":"SCALAR","byteOffset":0},{"bufferView":2,"byteOffset":224784,"componentType":5126,"count":755,"max":[0.06711000204086304,0.06711000204086304,1.0153100490570068],"min":[-0.06711000204086304,-0.06711000204086304,0.9481300115585327],"type":"VEC3"},{"bufferView":2,"byteOffset":233844,"componentType":5126,"count":755,"max":[1,1,1],"min":[-1,-1,-0.5901890397071838],"type":"VEC3"},{"bufferView":3,"byteOffset":149856,"componentType":5126,"count":755,"max":[0.9999661445617676,0.9837842583656311,0.9998032450675964,1],"min":[-0.6243139505386353,-0.9888187050819397,-0.9138432145118713,1],"type":"VEC4"},{"bufferView":1,"byteOffset":74928,"componentType":5126,"count":755,"max":[0.9916499853134155,0.9944700002670288],"min":[0.8104199767112732,0.8054400086402893],"type":"VEC2"},{"bufferView":0,"byteOffset":215040,"componentType":5125,"count":4032,"max":[754],"min":[0],"type":"SCALAR"}],"asset":{"extras":{"author":"Sam (https://sketchfab.com/samhalabi)","license":"CC-BY-4.0 (http://creativecommons.org/licenses/by/4.0/)","source":"https://sketchfab.com/models/e2485d989591462c85c4eced4a6cec4b","title":"Realistic Orange"},"generator":"Sketchfab-3.19.1","version":"2.0"},"bufferViews":[{"buffer":0,"byteLength":231168,"byteOffset":0,"name":"floatBufferViews","target":34963},{"buffer":0,"byteLength":80968,"byteOffset":231168,"byteStride":8,"name":"floatBufferViews","target":34962},{"buffer":0,"byteLength":242904,"byteOffset":312136,"byteStride":12,"name":"floatBufferViews","target":34962},{"buffer":0,"byteLength":161936,"byteOffset":555040,"byteStride":16,"name":"floatBufferViews","target":34962},{"buffer":0,"byteOffset":716976,"byteLength":69495},{"buffer":0,"byteOffset":786472,"byteLength":69495},{"buffer":0,"byteOffset":855968,"byteLength":58405}],"buffers":[{"byteLength":914376,"uri":"data:application/octet-stream;base64,"}],"images":[{"bufferView":4,"mimeType":"image/png"},{"bufferView":5,"mimeType":"image/png"},{"bufferView":6,"mimeType":"image/png"}],"materials":[{"doubleSided":true,"emissiveFactor":[0,0,0],"name":"Material.002","normalTexture":{"index":2,"scale":1,"texCoord":0},"pbrMetallicRoughness":{"baseColorFactor":[1,1,1,1],"baseColorTexture":{"index":1,"texCoord":0},"metallicFactor":0,"roughnessFactor":0.6},"alphaMode":"OPAQUE"},{"doubleSided":true,"emissiveFactor":[0,0,0],"name":"Material.004","pbrMetallicRoughness":{"baseColorFactor":[1,1,1,1],"baseColorTexture":{"index":0,"texCoord":0},"metallicFactor":0,"roughnessFactor":0.6},"alphaMode":"OPAQUE"}],"meshes":[{"name":"Sphere_0","primitives":[{"attributes":{"NORMAL":1,"POSITION":0,"TANGENT":2,"TEXCOORD_0":3},"indices":4,"material":0,"mode":4}]},{"name":"Sphere_1","primitives":[{"attributes":{"NORMAL":6,"POSITION":5,"TANGENT":7,"TEXCOORD_0":8},"indices":9,"material":1,"mode":4}]}],"nodes":[{"children":[1],"name":"RootNode (gltf orientation matrix)","rotation":[-0.7071067811865475,0,0,0.7071067811865476],"translation":[0,0,0],"scale":[1,1,1]},{"children":[2],"name":"RootNode (model correction matrix)"},{"children":[3,5,8],"name":"Root"},{"children":[4],"matrix":[-0.29086000000000006,0.9551700000000001,-0.05519000000000001,0,-0.7711,-0.19988000000000003,0.6045200000000001,0,0.5663900000000001,0.21839000000000003,0.7946700000000001,0,4.076250000000001,1.00545,5.903860000000001,1],"name":"Lamp"},{"name":"Lamp"},{"children":[6,7],"name":"Sphere"},{"mesh":0,"name":"Sphere_0"},{"mesh":1,"name":"Sphere_1"},{"children":[9],"matrix":[1,0,0,0,0,1,0,0,0,0,1,0,1.69272,0.02484,1.09067,1],"name":"Hemi"},{"name":"Hemi"}],"samplers":[{"magFilter":9729,"minFilter":9987,"wrapS":10497,"wrapT":10497}],"scene":0,"scenes":[{"name":"OSG_Scene","nodes":[0]}],"textures":[{"sampler":0,"source":0},{"sampler":0,"source":1},{"sampler":0,"source":2}]}
